<?xml version="1.0" standalone="no"?>
<!DOCTYPE svg PUBLIC "-//W3C//DTD SVG 20010904//EN"
 "http://www.w3.org/TR/2001/REC-SVG-20010904/DTD/svg10.dtd">
<svg version="1.0" xmlns="http://www.w3.org/2000/svg"
 width="700.000000pt" height="700.000000pt" viewBox="0 0 700.000000 700.000000"
 preserveAspectRatio="xMidYMid meet">
<metadata>
Created by potrace 1.14, written by Peter Selinger 2001-2017
</metadata>
<g transform="translate(0.000000,700.000000) scale(0.100000,-0.100000)"
fill="#000000" stroke="none">
<path d="M3046 6924 c-186 -33 -362 -124 -496 -256 -147 -145 -204 -259 -295
-593 -85 -310 -153 -557 -170 -620 -7 -27 -50 -183 -95 -345 -44 -162 -94
-342 -109 -400 -16 -58 -68 -247 -115 -420 -48 -173 -110 -398 -137 -500 -28
-102 -70 -255 -94 -340 -48 -170 -136 -494 -196 -720 -34 -129 -38 -155 -34
-235 7 -152 58 -267 166 -376 112 -113 263 -171 423 -164 218 10 425 158 499
356 13 35 133 465 202 724 7 28 66 241 130 475 64 234 119 432 121 440 5 22
66 243 118 431 59 213 55 266 -26 334 -41 34 -73 47 -124 47 -89 0 -165 -60
-190 -152 -8 -30 -22 -77 -30 -105 -15 -51 -123 -448 -129 -475 -2 -8 -16 -58
-31 -110 -14 -52 -28 -102 -29 -110 -2 -8 -20 -71 -39 -140 -19 -69 -98 -357
-176 -640 -77 -283 -147 -536 -156 -561 -50 -155 -251 -172 -325 -26 -16 31
-20 52 -16 86 4 25 70 278 147 561 78 283 168 614 201 735 96 352 227 828 270
982 22 78 42 150 44 160 3 16 166 612 216 788 10 39 42 153 70 255 47 171 76
248 114 303 32 47 122 130 171 158 101 57 167 74 294 73 110 -1 190 -24 277
-80 l55 -35 -63 -63 c-127 -124 -205 -232 -275 -380 -63 -134 -104 -273 -120
-406 -7 -60 -7 -273 -1 -305 3 -11 8 -40 12 -65 10 -62 9 -59 45 -205 18 -71
33 -137 35 -145 2 -8 31 -127 64 -264 34 -136 61 -257 61 -267 0 -11 -14 -69
-31 -130 -17 -61 -32 -118 -34 -128 -2 -9 -49 -182 -105 -386 -169 -614 -320
-1166 -340 -1240 -10 -38 -58 -212 -105 -385 -111 -399 -125 -451 -129 -471
-26 -108 -89 -305 -117 -364 -31 -66 -82 -147 -114 -182 -186 -201 -343 -290
-570 -327 -228 -36 -461 15 -654 145 -213 142 -350 355 -399 619 -8 46 -8 234
1 288 3 23 54 217 113 430 58 213 117 425 129 472 21 78 89 326 275 1005 39
143 80 292 91 330 11 39 24 86 29 105 5 19 16 60 24 90 9 30 38 138 66 240 27
102 54 199 59 215 38 115 80 308 74 337 -16 88 -87 155 -170 162 -78 6 -157
-34 -190 -97 -9 -17 -42 -129 -74 -247 -33 -118 -65 -237 -73 -265 -8 -27 -44
-158 -80 -290 -36 -132 -82 -298 -102 -370 -41 -149 -145 -529 -179 -655 -32
-119 -197 -718 -240 -875 -20 -71 -38 -137 -40 -145 -2 -8 -22 -82 -44 -165
-52 -190 -63 -253 -66 -395 -2 -100 12 -251 29 -307 3 -10 7 -29 10 -43 16
-88 92 -264 158 -369 275 -438 773 -672 1283 -603 414 55 780 307 977 672 67
125 89 192 208 630 40 146 81 294 91 329 10 34 21 73 23 85 3 11 41 154 86
316 45 162 87 318 95 345 36 136 187 680 209 750 19 64 25 75 30 55 3 -14 30
-128 61 -255 31 -126 58 -237 60 -245 10 -45 71 -301 115 -480 28 -113 66
-272 86 -355 20 -82 45 -165 56 -183 42 -69 151 -109 221 -82 81 33 136 104
137 178 0 17 -22 123 -49 235 -27 111 -59 243 -71 292 -11 50 -25 106 -30 125
-6 19 -30 118 -54 220 -25 102 -59 244 -76 315 -18 72 -33 137 -35 145 -2 8
-34 143 -73 300 -146 598 -145 590 -133 634 6 23 31 118 56 211 25 94 47 177
49 185 2 8 16 58 31 110 15 52 29 102 31 110 4 18 82 304 159 580 31 113 63
237 71 275 21 97 19 269 -5 375 -10 47 -17 88 -15 91 2 4 39 16 83 28 86 23
234 32 316 19 28 -4 64 -10 80 -12 17 -3 62 -16 100 -29 280 -96 496 -314 583
-587 11 -36 48 -177 81 -315 33 -137 83 -344 111 -460 28 -115 53 -219 56
-230 2 -11 44 -186 94 -390 50 -203 104 -426 120 -495 16 -69 48 -199 70 -290
23 -91 43 -175 46 -187 2 -11 31 -133 65 -270 112 -462 138 -568 168 -693 29
-122 147 -606 176 -725 9 -33 17 -69 19 -80 3 -11 19 -77 36 -147 17 -70 33
-135 35 -145 38 -163 47 -208 49 -263 10 -212 -115 -418 -312 -513 -70 -34
-131 -48 -227 -51 -135 -5 -288 57 -388 158 -64 64 -75 78 -115 160 -23 47
-33 85 -102 371 -94 391 -228 941 -320 1320 -34 138 -63 257 -65 265 -1 8 -24
103 -50 210 -26 107 -48 202 -50 210 -2 8 -17 71 -35 140 -17 69 -35 143 -40
165 -5 22 -22 96 -39 165 -17 69 -33 134 -35 145 -3 11 -34 142 -71 290 -126
517 -123 497 -74 570 35 50 74 69 146 70 54 0 66 -4 100 -31 43 -35 65 -75 83
-154 12 -55 87 -364 161 -670 22 -91 42 -172 44 -180 3 -15 42 -178 190 -785
40 -165 83 -343 95 -395 34 -140 55 -174 135 -211 55 -25 102 -24 161 6 98 49
123 133 85 288 -12 47 -44 180 -72 294 -27 114 -65 271 -84 348 -19 77 -50
205 -69 285 -19 80 -62 258 -96 395 -34 138 -63 257 -65 265 -27 117 -35 152
-39 165 -8 26 -19 72 -51 210 -52 222 -100 322 -196 411 -264 244 -695 182
-872 -126 -83 -145 -97 -287 -47 -490 18 -69 33 -132 35 -140 2 -8 35 -145 73
-305 60 -245 83 -340 107 -445 8 -33 136 -557 142 -580 3 -14 7 -32 9 -40 6
-30 124 -516 134 -550 5 -19 34 -138 64 -265 78 -325 185 -765 193 -795 3 -14
7 -32 9 -40 2 -9 19 -81 39 -160 19 -80 38 -157 40 -171 28 -153 122 -339 236
-463 137 -150 360 -267 559 -293 293 -38 594 66 797 275 236 243 314 547 234
902 -17 74 -48 207 -70 295 -35 147 -176 726 -272 1123 -21 89 -57 237 -80
330 -22 92 -69 289 -105 437 -36 149 -72 296 -80 328 -9 32 -17 67 -19 78 -2
11 -27 113 -55 227 -29 114 -54 218 -56 232 -3 14 -7 33 -10 42 -3 9 -7 25 -9
35 -2 10 -20 86 -40 168 -20 83 -38 157 -40 165 -2 8 -20 80 -39 160 -20 80
-38 154 -40 165 -3 11 -12 49 -21 85 -9 36 -20 83 -25 105 -7 34 -39 163 -66
270 -4 17 -9 39 -11 49 -2 11 -11 47 -19 80 -9 34 -17 68 -19 76 -92 430 -414
800 -830 953 -237 87 -509 104 -742 46 -43 -10 -87 -21 -98 -24 -11 -3 -41
-12 -66 -21 l-46 -17 -47 46 c-107 103 -260 187 -418 228 -104 27 -272 32
-382 13z m706 -932 c0 -37 -6 -86 -11 -107 -24 -95 -41 -157 -71 -264 -17 -62
-33 -120 -35 -130 -3 -15 -89 -322 -102 -366 -5 -14 -12 1 -24 50 -31 118 -41
257 -27 355 5 30 10 69 13 85 8 54 46 159 86 236 39 75 156 226 167 215 3 -3
5 -36 4 -74z"/>
</g>
</svg>
